<svg width="100" height="100" viewBox="0 0 100 100" fill="none" xmlns="http://www.w3.org/2000/svg">
<path fill-rule="evenodd" clip-rule="evenodd" d="M0 86.9917V28.1677C0 28.1677 2.74216 23.9864 9.42029 20.3896V0C9.42029 0 13.4281 10.5272 26.3491 15.5376C32.0414 15.012 38.7949 15.2818 46.7391 16.8642C47.8522 17.0859 48.939 17.2761 50 17.4367C51.061 17.2761 52.1478 17.0859 53.2609 16.8642C61.2051 15.2818 67.9586 15.012 73.6509 15.5376C86.5719 10.5272 90.5797 0 90.5797 0V20.3896C97.2578 23.9864 100 28.1677 100 28.1677V87.553C85.7756 95.4236 68.7701 100 50.5 100C31.7998 100 14.4243 95.2056 0 86.9917Z" fill="#15A4F4"/>
<circle cx="28" cy="45" r="5" fill="white"/>
<circle cx="73" cy="45" r="5" fill="white"/>
</svg>
